<svg xmlns="http://www.w3.org/2000/svg" width="1200" height="800" viewBox="0 0 1200 800">
  <g fill="none" stroke="#101e54" stroke-width="1.3" opacity="0.9">
    <!-- Band 1: upper sweeping curves -->
    <path d="M-100,70 C150,10 400,150 650,60 C850,-10 1050,90 1300,40"/>
    <path d="M-100,105 C150,45 400,185 650,95 C850,25 1050,125 1300,75"/>
    <path d="M-100,140 C150,80 400,220 650,130 C850,60 1050,160 1300,110"/>
    <path d="M-100,175 C150,115 400,255 650,165 C850,95 1050,195 1300,145"/>
    <path d="M-100,210 C150,150 400,290 650,200 C850,130 1050,230 1300,180"/>

    <!-- Band 2: mid curves -->
    <path d="M-100,310 C200,230 500,390 750,290 C950,210 1150,330 1300,270"/>
    <path d="M-100,345 C200,265 500,425 750,325 C950,245 1150,365 1300,305"/>
    <path d="M-100,380 C200,300 500,460 750,360 C950,280 1150,400 1300,340"/>
    <path d="M-100,415 C200,335 500,495 750,395 C950,315 1150,435 1300,375"/>
    <path d="M-100,450 C200,370 500,530 750,430 C950,350 1150,470 1300,410"/>

    <!-- Band 3: lower curves -->
    <path d="M-100,550 C250,470 550,630 800,530 C1000,450 1200,570 1300,510"/>
    <path d="M-100,585 C250,505 550,665 800,565 C1000,485 1200,605 1300,545"/>
    <path d="M-100,620 C250,540 550,700 800,600 C1000,520 1200,640 1300,580"/>
    <path d="M-100,655 C250,575 550,735 800,635 C1000,555 1200,675 1300,615"/>

    <!-- Left vertical curves -->
    <path d="M90,-50 C50,120 160,320 75,520 C35,660 75,770 45,900"/>
    <path d="M125,-50 C85,120 195,320 110,520 C70,660 110,770 80,900"/>
    <path d="M160,-50 C120,120 230,320 145,520 C105,660 145,770 115,900"/>

    <!-- Right vertical curves -->
    <path d="M1050,-50 C1010,160 1100,360 1035,560 C995,710 1035,810 1005,900"/>
    <path d="M1085,-50 C1045,160 1135,360 1070,560 C1030,710 1070,810 1040,900"/>
    <path d="M1120,-50 C1080,160 1170,360 1105,560 C1065,710 1105,810 1075,900"/>

    <!-- Diagonal crossing curves -->
    <path d="M-100,490 C300,290 700,590 1100,370 C1200,320 1300,370 1400,320"/>
    <path d="M-100,525 C300,325 700,625 1100,405 C1200,355 1300,405 1400,355"/>

    <!-- S-curves through middle -->
    <path d="M390,-50 C290,220 600,420 390,620 C290,770 440,860 390,960"/>
    <path d="M430,-50 C330,220 640,420 430,620 C330,770 480,860 430,960"/>

    <path d="M740,-50 C640,260 900,460 740,660 C650,810 790,910 740,1000"/>
    <path d="M780,-50 C680,260 940,460 780,660 C690,810 830,910 780,1000"/>
  </g>
</svg>
